<svg width="214" height="26" viewBox="0 0 214 26" fill="none" xmlns="http://www.w3.org/2000/svg">
<path d="M176.765 0.188232H211.765C211.988 0.192523 212.208 0.240837 212.413 0.330322C212.618 0.419807 212.803 0.548678 212.958 0.709717C213.112 0.870756 213.234 1.06075 213.315 1.2688C213.397 1.47685 213.436 1.69878 213.432 1.92212V23.5964C213.436 23.8198 213.397 24.0417 213.315 24.2498C213.234 24.4578 213.112 24.6478 212.958 24.8088C212.803 24.9699 212.618 25.0987 212.413 25.1882C212.208 25.2777 211.988 25.326 211.765 25.3303H176.765C176.541 25.326 176.321 25.2777 176.116 25.1882C175.912 25.0987 175.727 24.9699 175.572 24.8088C175.417 24.6478 175.295 24.4578 175.214 24.2498C175.133 24.0417 175.093 23.8198 175.098 23.5964V1.92212C175.093 1.69878 175.133 1.47685 175.214 1.2688C175.295 1.06075 175.417 0.870756 175.572 0.709717C175.727 0.548678 175.912 0.419807 176.116 0.330322C176.321 0.240837 176.541 0.192523 176.765 0.188232Z" fill="url(#paint0_linear_8_527)"/>
<path d="M205.07 17.4143L204.818 16.1194H202.084L201.635 17.4143H199.393L202.6 9.34937C202.674 9.14937 202.811 8.97835 202.99 8.86157C203.168 8.7448 203.38 8.68848 203.593 8.70044H205.322L207.044 17.4153L205.07 17.4143ZM203.834 11.0701L202.704 14.3313H204.47L203.834 11.0701ZM196.547 11.1843C196.547 12.1363 199.547 12.3401 199.547 14.5291C199.547 16.6371 197.332 17.4124 195.865 17.4124C195.031 17.4261 194.204 17.2639 193.437 16.9363L193.757 15.0461C194.637 15.7661 197.306 15.9714 197.306 14.8284C197.306 13.6854 194.331 13.6582 194.331 11.4822C194.331 9.17018 196.865 8.69409 197.931 8.69409C198.591 8.71102 199.244 8.83515 199.865 9.06128L199.558 10.8704C198.64 10.3584 196.545 10.2362 196.545 11.1882L196.547 11.1843ZM189.963 17.4143L191.307 8.69897H193.458L192.114 17.4143H189.963ZM184.806 17.4143L182.94 9.85229C183.269 10.0582 183.584 10.2875 183.881 10.5383C184.778 11.3059 185.46 12.2928 185.862 13.4031L186.105 14.6941L188.156 8.70044H190.471L187.049 17.4153L184.806 17.4143ZM181.012 8.93823L180.912 8.90845L181.012 8.93823ZM180.792 8.87329L180.744 8.86011L180.792 8.87329ZM181.321 9.04321L181.193 8.99829L181.321 9.04321ZM182.812 9.76831C182.745 9.72698 182.678 9.68717 182.612 9.64917C182.676 9.69317 182.742 9.73119 182.81 9.77319L182.812 9.76831ZM182.298 9.47827C182.24 9.44827 182.18 9.41643 182.123 9.38843C182.178 9.42143 182.237 9.45315 182.296 9.48315L182.298 9.47827ZM181.763 9.22144L181.645 9.17017L181.763 9.22144Z" fill="#494CA3"/>
<path d="M185.859 13.4072L185.135 9.48925C185.097 9.2531 184.97 9.0404 184.78 8.89452C184.591 8.74864 184.353 8.6809 184.115 8.70458H180.725L180.685 8.85155C181.862 9.16894 182.952 9.74641 183.877 10.5415C184.774 11.3092 185.457 12.2965 185.859 13.4072Z" fill="#FFC000"/>
<path d="M118.712 0.349365H153.447C153.896 0.36142 154.321 0.550379 154.631 0.875244C154.941 1.20011 155.11 1.63439 155.101 2.08325V23.7561C155.11 24.205 154.941 24.6392 154.631 24.9641C154.321 25.289 153.896 25.4779 153.447 25.49H118.712C118.263 25.4779 117.837 25.289 117.527 24.9641C117.217 24.6392 117.049 24.205 117.058 23.7561V2.08423C117.048 1.63519 117.217 1.20081 117.527 0.875732C117.837 0.55065 118.263 0.36142 118.712 0.349365Z" fill="#F1F1F1"/>
<path d="M117.47 24.8992C117.204 24.5784 117.06 24.1745 117.061 23.7581V2.08423C117.052 1.63519 117.22 1.20081 117.53 0.875732C117.84 0.55065 118.266 0.36142 118.715 0.349365H153.449C153.871 0.350311 154.275 0.516826 154.575 0.813232L117.475 24.8992H117.47Z" fill="white" fill-opacity="0.73"/>
<path d="M131.706 18.3143L133.006 15.9642L132.282 10.3201H134.053L134.339 13.6605L136.072 10.3201H137.9L133.691 18.3143H131.706ZM126.153 14.0985C126.426 12.7245 127.753 12.2884 129.715 12.2884C129.832 11.6774 129.443 11.5242 128.781 11.5472C128.197 11.5755 127.623 11.7086 127.087 11.9403L127.242 10.5672C127.886 10.3671 128.553 10.2497 129.227 10.2181C130.453 10.1961 131.816 10.5875 131.505 12.1805L130.746 15.9305H128.975L129.091 15.3621C128.885 15.5743 128.639 15.7436 128.368 15.8597C128.096 15.9758 127.804 16.0365 127.509 16.0384C126.67 16.0344 125.923 15.4881 126.154 14.0941L126.153 14.0985ZM127.964 14.0111C127.908 14.09 127.876 14.1835 127.873 14.2801C127.869 14.3767 127.893 14.4724 127.943 14.5555C127.992 14.6385 128.064 14.7056 128.151 14.7484C128.238 14.7911 128.335 14.8075 128.431 14.7962C128.65 14.806 128.865 14.7363 129.037 14.5999C129.209 14.4636 129.325 14.2701 129.366 14.0545C129.389 13.886 129.422 13.719 129.466 13.5545H129.018C128.818 13.536 128.617 13.5677 128.433 13.6468C128.249 13.7259 128.088 13.8496 127.964 14.0072V14.0111ZM120.053 15.9305L121.517 8.75813H124.824C125.119 8.75552 125.41 8.82374 125.673 8.95686C125.936 9.08998 126.163 9.28418 126.336 9.52327C126.508 9.76235 126.621 10.0393 126.664 10.3309C126.707 10.6225 126.68 10.9201 126.585 11.199C126.49 11.8549 126.161 12.4543 125.659 12.887C125.157 13.3197 124.515 13.557 123.853 13.5545H122.47L121.995 15.9305H120.053ZM122.746 12.1805H123.656C123.922 12.1593 124.174 12.0518 124.374 11.8748C124.574 11.6979 124.711 11.4607 124.765 11.199C124.807 11.0914 124.822 10.9755 124.81 10.8607C124.797 10.7458 124.757 10.6355 124.693 10.5394C124.629 10.4432 124.543 10.3641 124.442 10.3084C124.34 10.2527 124.227 10.2218 124.112 10.2191H123.162L122.746 12.1805Z" fill="#3284AE"/>
<path d="M143.37 14.094C143.646 12.72 144.987 12.2854 146.976 12.2854C147.114 11.6734 146.72 11.5222 146.05 11.5442C145.454 11.5748 144.867 11.7075 144.316 11.9363L144.474 10.5632C145.134 10.3656 145.815 10.2486 146.503 10.2151C147.744 10.1931 149.103 10.584 148.788 12.176L148.02 15.925H146.247L146.365 15.3591C145.935 15.7883 145.354 16.0314 144.747 16.0354C143.889 16.0344 143.133 15.489 143.37 14.094ZM145.203 14.0071C145.149 14.0887 145.12 14.1842 145.118 14.282C145.117 14.3798 145.144 14.4755 145.196 14.5583C145.248 14.6412 145.323 14.7073 145.412 14.7488C145.5 14.7902 145.599 14.8054 145.696 14.7922C145.914 14.802 146.127 14.732 146.298 14.5959C146.468 14.4598 146.583 14.2666 146.622 14.052C146.661 13.877 146.681 13.724 146.722 13.552H146.289C146.084 13.5313 145.877 13.5621 145.687 13.6414C145.497 13.7206 145.329 13.8459 145.2 14.0061L145.203 14.0071ZM148.839 15.925L150.305 8.7312H152.125L150.64 15.925H148.839ZM137.27 15.925L138.732 8.75415H142.032C142.326 8.75336 142.616 8.82264 142.877 8.9563C143.139 9.08996 143.365 9.28415 143.537 9.52271C143.709 9.76126 143.821 10.0372 143.865 10.3279C143.909 10.6186 143.883 10.9156 143.789 11.1941C143.693 11.8523 143.363 12.4535 142.858 12.8865C142.353 13.3195 141.709 13.555 141.044 13.5491H139.681L139.187 15.9241L137.27 15.925ZM139.957 12.176H140.845C141.113 12.1554 141.368 12.049 141.571 11.8723C141.774 11.6956 141.914 11.458 141.972 11.1951C142.012 11.086 142.025 10.969 142.01 10.8538C141.996 10.7385 141.954 10.6283 141.888 10.5325C141.823 10.4366 141.735 10.3582 141.633 10.303C141.531 10.2478 141.417 10.2174 141.301 10.2151H140.353L139.957 12.176Z" fill="#3CA9C7"/>
<path d="M60.5287 0.188232H95.5016C95.9523 0.197422 96.381 0.385026 96.6932 0.710205C97.0055 1.03538 97.1757 1.4714 97.1666 1.92212V23.5964C97.1757 24.0472 97.0055 24.4827 96.6932 24.8079C96.381 25.133 95.9523 25.3211 95.5016 25.3303H60.5287C60.0779 25.3211 59.6493 25.133 59.337 24.8079C59.0248 24.4827 58.8545 24.0472 58.8636 23.5964V1.92212C58.8545 1.4714 59.0248 1.03538 59.337 0.710205C59.6493 0.385026 60.0779 0.197422 60.5287 0.188232Z" fill="#5870BE"/>
<path d="M75.6187 12.755C75.619 10.9792 76.146 9.2435 77.1328 7.7672C78.1196 6.2909 79.522 5.14037 81.1627 4.46105C82.8034 3.78173 84.6086 3.60419 86.3502 3.95079C88.0918 4.2974 89.6916 5.1526 90.9471 6.40831C92.2027 7.66403 93.0578 9.26385 93.4042 11.0055C93.7506 12.7471 93.5727 14.5524 92.8932 16.193C92.2137 17.8336 91.0631 19.2356 89.5867 20.2223C88.1103 21.2089 86.3744 21.7358 84.5986 21.736C83.4193 21.736 82.2514 21.5037 81.1619 21.0524C80.0723 20.601 79.0823 19.9396 78.2484 19.1056C77.4145 18.2716 76.7531 17.2816 76.3019 16.192C75.8507 15.1024 75.6185 13.9343 75.6187 12.755Z" fill="#FFAF38"/>
<path d="M70.8396 21.7341C69.3085 21.7339 67.8029 21.3423 66.4658 20.5964C65.1287 19.8505 64.0045 18.7751 63.2 17.4724C62.3956 16.1697 61.9376 14.6831 61.8695 13.1535C61.8014 11.6239 62.1256 10.1021 62.8111 8.73311C63.4967 7.36409 64.5209 6.19347 65.7865 5.33174C67.052 4.47001 68.5168 3.94595 70.0418 3.80977C71.5669 3.67358 73.1014 3.92956 74.4996 4.55342C75.8978 5.17728 77.1133 6.14833 78.0306 7.37422H76.8307V7.97432H78.4436C78.5646 8.16532 78.6786 8.36318 78.7846 8.56318H76.2306V9.16328H79.0736C79.1616 9.36328 79.2406 9.56338 79.3106 9.76338H75.6306V10.363H79.4986C79.9848 12.137 79.9178 14.0173 79.3066 15.7521H75.6306V16.3522H79.0695C78.9795 16.5592 78.8826 16.7521 78.7846 16.9431H76.2306V17.5432H78.4366C78.3036 17.7532 78.1647 17.9543 78.0237 18.1433H76.8307V18.7434H77.5306C76.6878 19.6837 75.6565 20.436 74.5036 20.9514C73.3508 21.4667 72.1023 21.7332 70.8396 21.7341Z" fill="#E63737"/>
<path d="M60.9885 14.407L61.5352 10.1471L62.3837 10.256L63.005 13.4016C63.0619 13.6945 63.1027 13.9134 63.1274 14.0583C63.1958 13.9095 63.3005 13.6916 63.4417 13.4045L64.8421 10.5714L65.6005 10.6688L65.0538 14.9288L64.5104 14.859L64.968 11.2935L63.2725 14.7002L62.764 14.6349L61.9973 10.8503L61.5319 14.4768L60.9885 14.407ZM67.9591 14.9147C67.7442 15.0545 67.5424 15.1467 67.3535 15.1914C67.1666 15.2363 66.9705 15.2456 66.7651 15.2193C66.4261 15.1758 66.1761 15.06 66.0151 14.872C65.8544 14.682 65.7906 14.4582 65.8237 14.2005C65.843 14.0494 65.8946 13.9162 65.9783 13.8009C66.0642 13.684 66.1672 13.5948 66.2873 13.5334C66.4094 13.4723 66.5426 13.4313 66.6871 13.4104C66.7933 13.3965 66.9516 13.3902 67.1621 13.3917C67.5909 13.3955 67.9095 13.3753 68.118 13.3312C68.1291 13.2598 68.136 13.2144 68.1384 13.195C68.1658 12.9819 68.1357 12.8254 68.048 12.7256C67.9295 12.5902 67.7386 12.5057 67.4751 12.4719C67.2291 12.4403 67.0414 12.4605 66.912 12.5325C66.7848 12.6028 66.6791 12.7439 66.5948 12.9555L66.0924 12.8202C66.1669 12.6072 66.2661 12.4408 66.3898 12.3208C66.5137 12.1988 66.6811 12.115 66.8917 12.0691C67.1026 12.0214 67.3408 12.0145 67.6062 12.0486C67.8697 12.0824 68.0798 12.1409 68.2365 12.224C68.3932 12.3071 68.5042 12.4011 68.5695 12.506C68.6351 12.6089 68.6741 12.734 68.6867 12.8814C68.6927 12.9727 68.6808 13.1346 68.651 13.3671L68.5615 14.0645C68.4991 14.5508 68.4702 14.8601 68.4749 14.9927C68.4817 15.1235 68.5105 15.2522 68.5612 15.3789L68.0149 15.3088C67.9745 15.1933 67.956 15.062 67.9591 14.9147ZM68.0654 13.7409C67.8656 13.7941 67.5724 13.8234 67.1857 13.8289C66.9667 13.8323 66.8102 13.8476 66.7161 13.8749C66.622 13.9023 66.5459 13.9506 66.4878 14.0199C66.4299 14.0873 66.3951 14.1665 66.3834 14.2576C66.3655 14.3971 66.4029 14.52 66.4956 14.6264C66.5902 14.7331 66.7392 14.7995 66.9426 14.8256C67.1441 14.8514 67.3289 14.8308 67.497 14.7638C67.6654 14.6948 67.7962 14.5885 67.8894 14.445C67.9608 14.334 68.0112 14.1632 68.0408 13.9327L68.0654 13.7409ZM69.1182 14.514L69.6458 14.499C69.6483 14.7101 69.7083 14.8792 69.8259 15.0066C69.9454 15.1341 70.1243 15.2132 70.3625 15.2438C70.6028 15.2746 70.7872 15.2491 70.9159 15.1671C71.0448 15.0832 71.1177 14.9754 71.1346 14.8437C71.1498 14.7255 71.1104 14.6259 71.0164 14.545C70.9507 14.4893 70.78 14.4073 70.5045 14.2991C70.1333 14.153 69.8776 14.0355 69.7374 13.9466C69.5994 13.8561 69.4996 13.7438 69.438 13.6099C69.3786 13.4743 69.3586 13.3309 69.378 13.1798C69.3956 13.0423 69.4429 12.9193 69.5198 12.8111C69.5989 12.7011 69.6977 12.6143 69.8161 12.5508C69.9052 12.5012 70.0221 12.465 70.1668 12.4422C70.3137 12.4177 70.4675 12.4158 70.6283 12.4364C70.8705 12.4675 71.0781 12.5296 71.2513 12.6227C71.4263 12.7161 71.5498 12.8284 71.6215 12.9597C71.6935 13.089 71.7332 13.2556 71.7405 13.4594L71.2202 13.4635C71.2173 13.3016 71.1654 13.169 71.0645 13.0654C70.9655 12.9621 70.8143 12.8974 70.6109 12.8713C70.3707 12.8405 70.1941 12.8582 70.0813 12.9245C69.9684 12.9907 69.9051 13.0771 69.8914 13.1837C69.8827 13.2515 69.8962 13.3152 69.9319 13.3749C69.9673 13.4366 70.0282 13.4917 70.1145 13.5402C70.1643 13.5662 70.3126 13.6306 70.5594 13.7331C70.9167 13.8794 71.1639 13.9938 71.301 14.0764C71.4403 14.1573 71.5439 14.2631 71.6117 14.3939C71.6796 14.5247 71.7021 14.6792 71.6793 14.8575C71.6569 15.0318 71.5844 15.1899 71.4619 15.3317C71.3415 15.4718 71.1799 15.5722 70.9772 15.6328C70.7747 15.6915 70.5524 15.7053 70.3103 15.6742C69.9092 15.6228 69.6139 15.5002 69.4241 15.3065C69.2362 15.113 69.1343 14.8489 69.1182 14.514ZM73.3868 15.5226L73.4031 15.9943C73.2519 16.0064 73.1181 16.005 73.0019 15.9901C72.8121 15.9658 72.6687 15.9168 72.5718 15.8434C72.4749 15.7699 72.4113 15.682 72.3811 15.5796C72.3512 15.4754 72.3564 15.2663 72.3966 14.9525L72.6245 13.177L72.2409 13.1278L72.2931 12.721L72.6767 12.7702L72.7748 12.006L73.3352 11.7589L73.1968 12.8369L73.7228 12.9044L73.6706 13.3113L73.1446 13.2438L72.9131 15.0483C72.8939 15.1975 72.8903 15.2945 72.9023 15.3393C72.9162 15.3844 72.9419 15.4222 72.9793 15.4526C73.0187 15.4833 73.0771 15.5036 73.1546 15.5135C73.2127 15.521 73.2901 15.524 73.3868 15.5226ZM76.0812 15.3338L76.6131 15.47C76.4873 15.7748 76.298 15.9996 76.0451 16.1444C75.7922 16.2891 75.4866 16.3385 75.1282 16.2925C74.6768 16.2346 74.3362 16.0501 74.1063 15.739C73.8787 15.4262 73.797 15.019 73.8614 14.5172C73.928 13.9981 74.1134 13.6123 74.4176 13.3599C74.7217 13.1075 75.0869 13.0086 75.513 13.0633C75.9257 13.1163 76.2447 13.3 76.4702 13.6144C76.6957 13.9289 76.7757 14.3409 76.7103 14.8504C76.7064 14.8814 76.6994 14.9277 76.6895 14.9895L74.3881 14.6941C74.364 15.0356 74.4265 15.3075 74.5758 15.5098C74.7251 15.7121 74.9286 15.8298 75.1863 15.8628C75.378 15.8874 75.5482 15.8581 75.6967 15.7748C75.8453 15.6914 75.9734 15.5444 76.0812 15.3338ZM74.4724 14.2678L76.1955 14.4889C76.2056 14.2263 76.1647 14.0232 76.0729 13.8795C75.9321 13.6566 75.7291 13.5282 75.4637 13.4941C75.2234 13.4633 75.0107 13.5177 74.8254 13.6574C74.642 13.7973 74.5243 14.0007 74.4724 14.2678ZM77.148 16.4808L77.544 13.3948L78.0148 13.4552L77.9547 13.9231C78.1029 13.7196 78.2319 13.5894 78.3415 13.5326C78.4532 13.4761 78.57 13.4556 78.6921 13.4713C78.8683 13.4939 79.0403 13.5731 79.208 13.7088L78.9656 14.171C78.8474 14.079 78.7244 14.0248 78.5965 14.0084C78.4822 13.9937 78.3751 14.0154 78.2751 14.0735C78.1753 14.1296 78.0983 14.2162 78.0439 14.3333C77.9619 14.5118 77.9067 14.7115 77.8784 14.9323L77.671 16.548L77.148 16.4808ZM82.4336 15.641L82.9791 15.8557C82.8015 16.3035 82.543 16.6297 82.2037 16.8343C81.8665 17.0372 81.4761 17.1101 81.0325 17.0532C80.5734 16.9943 80.2114 16.8533 79.9466 16.6303C79.684 16.4056 79.4999 16.1063 79.3943 15.7324C79.2907 15.3587 79.2649 14.9685 79.3171 14.5617C79.3741 14.118 79.5079 13.7424 79.7187 13.4347C79.9317 13.1253 80.2051 12.9054 80.5389 12.7749C80.8748 12.6428 81.2307 12.6008 81.6066 12.649C82.0327 12.7037 82.3772 12.8582 82.64 13.1125C82.9027 13.3667 83.066 13.6978 83.1298 14.1058L82.558 14.1653C82.499 13.8427 82.3846 13.5986 82.2148 13.433C82.0451 13.2675 81.8178 13.1665 81.533 13.1299C81.2056 13.0879 80.9214 13.1312 80.6805 13.2598C80.4414 13.3886 80.2603 13.58 80.1371 13.8339C80.0142 14.086 79.9347 14.3524 79.8987 14.6333C79.8522 14.9956 79.8638 15.3191 79.9336 15.6037C80.0056 15.8866 80.1444 16.1092 80.3501 16.2715C80.5557 16.4338 80.7883 16.5316 81.0479 16.5649C81.3637 16.6054 81.6427 16.5487 81.885 16.3946C82.1272 16.2406 82.3101 15.9894 82.4336 15.641ZM85.4988 17.1656C85.284 17.3054 85.0821 17.3977 84.8933 17.4423C84.7063 17.4873 84.5102 17.4966 84.3049 17.4702C83.9658 17.4267 83.7158 17.3109 83.5549 17.1229C83.3942 16.9329 83.3303 16.7091 83.3634 16.4515C83.3828 16.3004 83.4343 16.1672 83.5181 16.0519C83.604 15.9349 83.707 15.8457 83.8271 15.7844C83.9491 15.7232 84.0824 15.6822 84.2268 15.6614C84.333 15.6474 84.4913 15.6412 84.7019 15.6426C85.1306 15.6464 85.4493 15.6263 85.6578 15.5821C85.6689 15.5107 85.6757 15.4653 85.6782 15.4459C85.7055 15.2328 85.6754 15.0764 85.5878 14.9765C85.4693 14.8412 85.2783 14.7566 85.0148 14.7228C84.7688 14.6912 84.5811 14.7114 84.4518 14.7835C84.3246 14.8538 84.2189 14.9948 84.1346 15.2065L83.6321 15.0711C83.7067 14.8582 83.8058 14.6917 83.9295 14.5717C84.0535 14.4498 84.2208 14.3659 84.4315 14.3201C84.6424 14.2723 84.8806 14.2655 85.146 14.2995C85.4094 14.3333 85.6195 14.3918 85.7762 14.4749C85.9329 14.5581 86.0439 14.652 86.1092 14.7569C86.1748 14.8598 86.2139 14.985 86.2265 15.1323C86.2325 15.2237 86.2206 15.3856 86.1907 15.618L86.1012 16.3154C86.0388 16.8017 86.0099 17.1111 86.0146 17.2436C86.0214 17.3745 86.0502 17.5032 86.1009 17.6298L85.5546 17.5597C85.5143 17.4443 85.4957 17.3129 85.4988 17.1656ZM85.6052 15.9919C85.4054 16.045 85.1122 16.0743 84.7255 16.0798C84.5065 16.0832 84.3499 16.0986 84.2558 16.1259C84.1618 16.1532 84.0857 16.2015 84.0275 16.2709C83.9697 16.3383 83.9349 16.4175 83.9232 16.5085C83.9053 16.648 83.9427 16.771 84.0354 16.8774C84.13 16.984 84.279 17.0504 84.4824 17.0765C84.6839 17.1024 84.8687 17.0818 85.0368 17.0147C85.2051 16.9458 85.3359 16.8395 85.4292 16.6959C85.5005 16.5849 85.551 16.4142 85.5806 16.1836L85.6052 15.9919ZM86.7431 17.7122L87.1391 14.6262L87.6099 14.6866L87.5499 15.1545C87.6981 14.951 87.827 14.8208 87.9367 14.764C88.0483 14.7074 88.1651 14.687 88.2872 14.7027C88.4635 14.7253 88.6355 14.8045 88.8031 14.9402L88.5607 15.4023C88.4425 15.3104 88.3195 15.2562 88.1917 15.2398C88.0774 15.2251 87.9702 15.2468 87.8702 15.3049C87.7705 15.361 87.6934 15.4476 87.639 15.5647C87.557 15.7432 87.5018 15.9429 87.4735 16.1637L87.2662 17.7794L86.7431 17.7122ZM90.7328 18.2242L90.7828 17.8349C90.5479 18.1158 90.2406 18.232 89.8609 18.1832C89.6148 18.1517 89.3969 18.0548 89.207 17.8926C89.019 17.7306 88.8835 17.5212 88.8002 17.2644C88.7192 17.0059 88.699 16.7187 88.7395 16.403C88.779 16.0949 88.8661 15.8226 89.0009 15.5858C89.1359 15.3472 89.3146 15.1742 89.5371 15.0669C89.7596 14.9596 89.9978 14.9222 90.2515 14.9547C90.4375 14.9786 90.5981 15.0396 90.7332 15.1377C90.8685 15.2338 90.9736 15.3507 91.0485 15.4883L91.2447 13.9598L91.7648 14.0265L91.2181 18.2865L90.7328 18.2242ZM89.2771 16.472C89.2263 16.8671 89.2717 17.1733 89.4132 17.3903C89.5547 17.6073 89.7388 17.7304 89.9654 17.7595C90.194 17.7888 90.3997 17.7207 90.5824 17.5551C90.7673 17.3878 90.8844 17.1124 90.9336 16.7288C90.9878 16.3065 90.9462 15.9861 90.8089 15.7676C90.6715 15.5492 90.4837 15.4246 90.2454 15.3941C90.0129 15.3642 89.806 15.4342 89.6248 15.6039C89.4454 15.7738 89.3295 16.0632 89.2771 16.472Z" fill="white"/>
<path d="M2.66172 0.385986H37.6438C37.867 0.390407 38.0872 0.439022 38.2917 0.528564C38.4963 0.618107 38.6812 0.746933 38.8359 0.907959C38.9906 1.06898 39.1122 1.25906 39.1935 1.46704C39.2748 1.67502 39.3142 1.8971 39.3097 2.12036V23.7961C39.3185 24.2469 39.148 24.6826 38.8356 25.0076C38.5231 25.3326 38.0945 25.5201 37.6438 25.5291H2.66172C2.211 25.5201 1.78225 25.3326 1.46983 25.0076C1.1574 24.6826 0.986868 24.2469 0.995708 23.7961V2.12036C0.991198 1.8971 1.03075 1.67502 1.11204 1.46704C1.19333 1.25906 1.31475 1.06898 1.46946 0.907959C1.62417 0.746933 1.80909 0.618107 2.01365 0.528564C2.21822 0.439022 2.43846 0.390407 2.66172 0.385986Z" fill="#353A40"/>
<path d="M23.6847 16.9503C23.4203 16.8159 23.2029 16.6042 23.0608 16.3439C22.8904 16.0252 22.8075 15.6674 22.8208 15.3063C22.8061 15.0601 22.8404 14.8135 22.9218 14.5807C23.0031 14.3479 23.13 14.1337 23.2948 13.9503C23.47 13.7834 23.6777 13.6542 23.9049 13.5709C24.1322 13.4877 24.3741 13.4517 24.6157 13.466C24.8592 13.4503 25.1033 13.4845 25.333 13.5665C25.5627 13.6486 25.7733 13.7767 25.9518 13.943C26.1151 14.123 26.2406 14.3338 26.3212 14.5631C26.4017 14.7924 26.4356 15.0354 26.4208 15.278C26.4356 15.6296 26.367 15.9798 26.2207 16.2999C26.0885 16.5605 25.8827 16.7765 25.6288 16.921C25.3314 17.0783 24.9979 17.155 24.6617 17.1432C24.3255 17.1553 23.991 17.0894 23.6847 16.9503ZM24.0907 14.5333C23.9618 14.7717 23.8943 15.0382 23.8943 15.3092C23.8943 15.5802 23.9618 15.8468 24.0907 16.0851C24.1587 16.1589 24.2413 16.2176 24.3333 16.2579C24.4252 16.2982 24.5244 16.3195 24.6248 16.3195C24.7251 16.3195 24.8243 16.2982 24.9163 16.2579C25.0082 16.2176 25.0907 16.1589 25.1587 16.0851C25.3103 15.8378 25.377 15.5476 25.3488 15.2589C25.3703 14.9984 25.2995 14.7387 25.1488 14.525C25.0827 14.4485 25.0001 14.3883 24.9072 14.3483C24.8144 14.3083 24.7138 14.2896 24.6128 14.2941C24.5133 14.2913 24.4145 14.3112 24.324 14.3527C24.2335 14.3941 24.1536 14.4562 24.0907 14.5333ZM14.1787 17.1071C14.0044 17.0899 13.8349 17.0404 13.6787 16.9611C13.5371 16.8838 13.4122 16.7794 13.3108 16.6539C13.207 16.5349 13.129 16.396 13.0818 16.2452C13.0204 16.0509 12.9868 15.8489 12.9818 15.6451V13.527H14.0527V15.695C14.0479 15.7774 14.0595 15.8602 14.0868 15.9381C14.1141 16.016 14.1566 16.0876 14.2118 16.1491C14.3331 16.2533 14.4877 16.3107 14.6477 16.3107C14.8077 16.3107 14.9624 16.2533 15.0837 16.1491C15.1389 16.087 15.1813 16.0146 15.2084 15.9362C15.2355 15.8577 15.2468 15.7749 15.2417 15.692V13.5241H16.3127V15.6422C16.3133 15.8464 16.2795 16.0493 16.2128 16.2423C16.1511 16.4259 16.0485 16.5929 15.9127 16.7311C15.793 16.8617 15.6459 16.9639 15.4818 17.0309C15.2406 17.1149 14.9861 17.155 14.7307 17.1491C14.5464 17.1454 14.3625 17.1311 14.1798 17.1061L14.1787 17.1071ZM29.3177 17.0831L28.0177 15.131V17.0831H27.0077V13.528H28.0077L29.3168 15.4943V13.528H30.3287V17.0831H29.3177ZM19.3397 17.0831L18.0398 15.131V17.0831H17.0298V13.528H18.0298L19.3378 15.4943V13.528H20.3497V17.0831H19.3397ZM21.1097 17.0739V13.525H22.1897V17.0739H21.1097ZM12.9048 12.0929C12.6733 11.853 12.5358 11.5381 12.5177 11.2052L13.5398 11.1403C13.5505 11.2789 13.5965 11.4122 13.6737 11.528C13.7294 11.5996 13.8016 11.6567 13.8842 11.6945C13.9667 11.7322 14.0571 11.7499 14.1477 11.7452C14.2757 11.7538 14.4024 11.7139 14.5028 11.6339C14.5404 11.6042 14.5708 11.5666 14.5919 11.5236C14.613 11.4806 14.6243 11.4333 14.6249 11.3854C14.6255 11.3375 14.6153 11.2902 14.5952 11.2467C14.5751 11.2032 14.5456 11.1646 14.5088 11.1339C14.3426 11.0262 14.1548 10.9558 13.9587 10.9279C13.5933 10.8667 13.248 10.7189 12.9518 10.4962C12.8541 10.4112 12.7765 10.3053 12.7246 10.1867C12.6727 10.068 12.6479 9.93961 12.6517 9.81019C12.6522 9.62648 12.7061 9.44677 12.8068 9.2931C12.9207 9.12168 13.0834 8.98847 13.2738 8.91029C13.5463 8.80593 13.8373 8.75846 14.1288 8.77113C14.4857 8.74732 14.8411 8.83607 15.1448 9.02503C15.2673 9.12197 15.3677 9.24414 15.4395 9.38294C15.5112 9.52175 15.5526 9.67418 15.5608 9.83021L14.5487 9.89124C14.5355 9.75836 14.4753 9.63447 14.3788 9.54212C14.2767 9.46419 14.1499 9.42562 14.0217 9.43324C13.9211 9.4259 13.8212 9.45467 13.7397 9.51429C13.7098 9.53824 13.6856 9.56851 13.6692 9.60316C13.6527 9.63781 13.6444 9.67564 13.6448 9.714C13.6456 9.74394 13.6531 9.77328 13.6667 9.79994C13.6804 9.82659 13.6999 9.85018 13.7238 9.86829C13.833 9.93783 13.9562 9.98212 14.0847 9.99818C14.4323 10.0625 14.771 10.1679 15.0938 10.3121C15.2757 10.3994 15.4293 10.5363 15.5367 10.7072C15.6296 10.8664 15.6774 11.0478 15.6748 11.2321C15.676 11.4559 15.6117 11.6752 15.4897 11.8629C15.3643 12.0567 15.1845 12.2091 14.9728 12.3009C14.7075 12.408 14.4227 12.4591 14.1367 12.4503C13.6951 12.4965 13.2529 12.3676 12.9048 12.0919V12.0929ZM29.3187 12.3829L28.0188 10.4303V12.3829H27.0088V8.82826H28.0088L29.3177 10.7951V8.82826H30.3297V12.3829H29.3187ZM25.4437 12.3829L24.8698 11.296C24.8236 11.193 24.7573 11.1002 24.6748 11.0231C24.5979 10.9681 24.5054 10.939 24.4108 10.9401H24.3158V12.3829H23.2367V8.82826H25.0258C25.2824 8.81818 25.539 8.84744 25.7867 8.91517C25.9607 8.972 26.1105 9.08555 26.2118 9.23792C26.323 9.409 26.3792 9.61017 26.3728 9.8141C26.3773 9.99226 26.3348 10.1687 26.2498 10.3253C26.1673 10.4677 26.0505 10.5867 25.9098 10.672C25.7923 10.7388 25.665 10.7868 25.5327 10.8141C25.6319 10.8434 25.7263 10.8871 25.8127 10.944C25.877 10.9996 25.9344 11.0627 25.9838 11.132C26.0408 11.2004 26.0914 11.2743 26.1348 11.3522L26.6548 12.3829H25.4437ZM24.3168 10.2672H24.7698C24.8658 10.2603 24.9608 10.2439 25.0537 10.2189C25.1234 10.2046 25.1854 10.1652 25.2278 10.108C25.2729 10.0485 25.2968 9.97566 25.2958 9.90101C25.2989 9.85165 25.2909 9.80234 25.2723 9.75648C25.2538 9.71062 25.2252 9.66924 25.1887 9.63587C25.069 9.56233 24.9284 9.53052 24.7887 9.54505H24.3168V10.2672ZM19.7168 12.3829V8.82826H22.5947V9.58704H20.7948V10.152H22.4668V10.8781H20.7948V11.5783H22.6498V12.3829H19.7168ZM17.0647 12.3829V9.70619H15.9697V8.82826H19.2347V9.70619H18.1348V12.3829H17.0647ZM9.19971 12.3829V8.82826H12.0778V9.58704H10.2777V10.152H11.9487V10.8781H10.2698V11.5783H12.1228V12.3829H9.19971ZM7.03271 12.3829L6.42371 10.1442L5.81677 12.3829H4.76379L3.99072 8.82826H5.01074L5.37781 10.818L5.91577 8.82826H6.93176L7.4707 10.816L7.83777 8.82826H8.85278L8.08679 12.3829H7.03271Z" fill="#ECD345"/>
<path d="M35.1199 17.1453V8.76538H36.3198V17.1453H35.1199ZM32.1299 17.1453V8.76538H33.3298V17.1453H32.1299Z" fill="#ECD345"/>
<defs>
<linearGradient id="paint0_linear_8_527" x1="194.265" y1="25.3303" x2="194.265" y2="0.188232" gradientUnits="userSpaceOnUse">
<stop stop-color="#E59703"/>
<stop offset="0.231" stop-color="#E59703"/>
<stop offset="0.234" stop-color="white"/>
<stop offset="0.761" stop-color="white"/>
<stop offset="0.766" stop-color="#5457BB"/>
<stop offset="1" stop-color="#5457BB"/>
</linearGradient>
</defs>
</svg>
